<mxfile host="app.diagrams.net" modified="2021-12-21T06:42:45.576Z" agent="5.0 (Windows)" etag="LMuKQwNO_0dPpT2FLgUZ" version="15.9.6" type="github">
  <diagram id="tw3wIOBUTSYQ3xTpo6V7" name="Page-1">
    <mxGraphModel dx="1038" dy="536" grid="1" gridSize="10" guides="1" tooltips="1" connect="1" arrows="1" fold="1" page="1" pageScale="1" pageWidth="850" pageHeight="1100" math="0" shadow="0">
      <root>
        <mxCell id="0" />
        <mxCell id="1" parent="0" />
        <mxCell id="LatXZvMmSTSCF2WJcFbW-1" value="" style="ellipse;html=1;shape=startState;fillColor=#000000;strokeColor=#ff0000;" parent="1" vertex="1">
          <mxGeometry y="400" width="30" height="30" as="geometry" />
        </mxCell>
        <mxCell id="LatXZvMmSTSCF2WJcFbW-2" value="" style="edgeStyle=orthogonalEdgeStyle;html=1;verticalAlign=bottom;endArrow=open;endSize=8;strokeColor=#ff0000;rounded=0;entryX=0;entryY=0.5;entryDx=0;entryDy=0;" parent="1" source="LatXZvMmSTSCF2WJcFbW-1" target="LatXZvMmSTSCF2WJcFbW-3" edge="1">
          <mxGeometry relative="1" as="geometry">
            <mxPoint x="110" y="415" as="targetPoint" />
          </mxGeometry>
        </mxCell>
        <mxCell id="LatXZvMmSTSCF2WJcFbW-5" style="edgeStyle=orthogonalEdgeStyle;rounded=0;orthogonalLoop=1;jettySize=auto;html=1;entryX=0;entryY=0.5;entryDx=0;entryDy=0;" parent="1" source="LatXZvMmSTSCF2WJcFbW-3" target="LatXZvMmSTSCF2WJcFbW-7" edge="1">
          <mxGeometry relative="1" as="geometry">
            <mxPoint x="390" y="415" as="targetPoint" />
          </mxGeometry>
        </mxCell>
        <mxCell id="LatXZvMmSTSCF2WJcFbW-3" value="No Favorite Food" style="rounded=1;whiteSpace=wrap;html=1;" parent="1" vertex="1">
          <mxGeometry x="150" y="385" width="120" height="60" as="geometry" />
        </mxCell>
        <mxCell id="LatXZvMmSTSCF2WJcFbW-4" value="onTabClick()" style="text;html=1;strokeColor=none;fillColor=none;align=center;verticalAlign=middle;whiteSpace=wrap;rounded=0;" parent="1" vertex="1">
          <mxGeometry x="60" y="385" width="60" height="30" as="geometry" />
        </mxCell>
        <mxCell id="LatXZvMmSTSCF2WJcFbW-6" value="on+Click()" style="text;html=1;strokeColor=none;fillColor=none;align=center;verticalAlign=middle;whiteSpace=wrap;rounded=0;" parent="1" vertex="1">
          <mxGeometry x="290" y="385" width="60" height="30" as="geometry" />
        </mxCell>
        <mxCell id="LatXZvMmSTSCF2WJcFbW-8" style="edgeStyle=orthogonalEdgeStyle;rounded=0;orthogonalLoop=1;jettySize=auto;html=1;" parent="1" source="LatXZvMmSTSCF2WJcFbW-7" edge="1">
          <mxGeometry relative="1" as="geometry">
            <mxPoint x="580" y="415" as="targetPoint" />
          </mxGeometry>
        </mxCell>
        <mxCell id="LatXZvMmSTSCF2WJcFbW-7" value="Current Food Dish Listed" style="rounded=1;whiteSpace=wrap;html=1;" parent="1" vertex="1">
          <mxGeometry x="365" y="385" width="120" height="60" as="geometry" />
        </mxCell>
        <mxCell id="LatXZvMmSTSCF2WJcFbW-9" value="onStarClick()" style="text;html=1;strokeColor=none;fillColor=none;align=center;verticalAlign=middle;whiteSpace=wrap;rounded=0;" parent="1" vertex="1">
          <mxGeometry x="500" y="385" width="60" height="30" as="geometry" />
        </mxCell>
        <mxCell id="LatXZvMmSTSCF2WJcFbW-11" style="edgeStyle=orthogonalEdgeStyle;rounded=0;orthogonalLoop=1;jettySize=auto;html=1;" parent="1" source="LatXZvMmSTSCF2WJcFbW-10" edge="1">
          <mxGeometry relative="1" as="geometry">
            <mxPoint x="740" y="415" as="targetPoint" />
          </mxGeometry>
        </mxCell>
        <mxCell id="LatXZvMmSTSCF2WJcFbW-10" value="New Food Favorited" style="rounded=1;whiteSpace=wrap;html=1;" parent="1" vertex="1">
          <mxGeometry x="580" y="385" width="120" height="60" as="geometry" />
        </mxCell>
        <mxCell id="LatXZvMmSTSCF2WJcFbW-12" value="" style="ellipse;html=1;shape=endState;fillColor=#000000;strokeColor=#ff0000;" parent="1" vertex="1">
          <mxGeometry x="740" y="400" width="30" height="30" as="geometry" />
        </mxCell>
      </root>
    </mxGraphModel>
  </diagram>
</mxfile>
